<svg xmlns:xlink="http://www.w3.org/1999/xlink" xmlns="http://www.w3.org/2000/svg" width="140" height="60" viewBox="0 0 140 60" fill="none">
<rect width="140" height="60" fill="white"/>
<path d="M49.7353 12.3188C50.3757 12.3188 50.8948 11.7998 50.8948 11.1594C50.8948 10.5191 50.3757 10 49.7353 10C49.095 10 48.5759 10.5191 48.5759 11.1594C48.5759 11.7998 49.095 12.3188 49.7353 12.3188Z" fill="black"/>
<path d="M30.9209 12.3188C31.5612 12.3188 32.0803 11.7998 32.0803 11.1594C32.0803 10.5191 31.5612 10 30.9209 10C30.2806 10 29.7615 10.5191 29.7615 11.1594C29.7615 11.7998 30.2806 12.3188 30.9209 12.3188Z" fill="black"/>
<path d="M12.1594 12.3188C12.7998 12.3188 13.3188 11.7998 13.3188 11.1594C13.3188 10.5191 12.7998 10 12.1594 10C11.5191 10 11 10.5191 11 11.1594C11 11.7998 11.5191 12.3188 12.1594 12.3188Z" fill="black"/>
<path d="M49.7353 31.0804C50.3757 31.0804 50.8948 30.5613 50.8948 29.9209C50.8948 29.2806 50.3757 28.7615 49.7353 28.7615C49.095 28.7615 48.5759 29.2806 48.5759 29.9209C48.5759 30.5613 49.095 31.0804 49.7353 31.0804Z" fill="black"/>
<path d="M30.9209 31.0804C31.5612 31.0804 32.0803 30.5613 32.0803 29.9209C32.0803 29.2806 31.5612 28.7615 30.9209 28.7615C30.2806 28.7615 29.7615 29.2806 29.7615 29.9209C29.7615 30.5613 30.2806 31.0804 30.9209 31.0804Z" fill="black"/>
<path d="M12.1594 31.0804C12.7998 31.0804 13.3188 30.5613 13.3188 29.9209C13.3188 29.2806 12.7998 28.7615 12.1594 28.7615C11.5191 28.7615 11 29.2806 11 29.9209C11 30.5613 11.5191 31.0804 12.1594 31.0804Z" fill="black"/>
<path d="M49.7353 49.8419C50.3757 49.8419 50.8948 49.3228 50.8948 48.6825C50.8948 48.0421 50.3757 47.5231 49.7353 47.5231C49.095 47.5231 48.5759 48.0421 48.5759 48.6825C48.5759 49.3228 49.095 49.8419 49.7353 49.8419Z" fill="black"/>
<path d="M30.9209 49.8419C31.5612 49.8419 32.0803 49.3228 32.0803 48.6825C32.0803 48.0421 31.5612 47.5231 30.9209 47.5231C30.2806 47.5231 29.7615 48.0421 29.7615 48.6825C29.7615 49.3228 30.2806 49.8419 30.9209 49.8419Z" fill="black"/>
<path d="M12.1594 49.8419C12.7998 49.8419 13.3188 49.3228 13.3188 48.6825C13.3188 48.0421 12.7998 47.5231 12.1594 47.5231C11.5191 47.5231 11 48.0421 11 48.6825C11 49.3228 11.5191 49.8419 12.1594 49.8419Z" fill="black"/>
<path fill-rule="evenodd" clip-rule="evenodd" d="M63.6481 48.6825C64.1751 48.6825 64.544 48.5771 64.8075 48.3663C65.071 48.1555 65.1764 47.892 65.1764 47.4704C65.1764 47.1014 65.071 46.8379 64.8075 46.6271C64.544 46.4163 64.1224 46.2582 63.49 46.0474C62.436 45.7312 61.5927 45.3623 61.0657 44.9407C60.5387 44.5191 60.2752 43.9394 60.2752 43.2016C60.2752 42.4111 60.5914 41.8314 61.2238 41.357C61.8563 40.8827 62.6468 40.6719 63.6481 40.6719C64.6494 40.6719 65.4399 40.9354 66.0723 41.4624C66.7047 41.9895 67.0209 42.6746 67.0209 43.4651H65.2291C65.2291 43.0435 65.071 42.7273 64.8075 42.4638C64.544 42.2003 64.1751 42.0949 63.6481 42.0949C63.1211 42.0949 62.7522 42.2003 62.4887 42.4111C62.2252 42.6219 62.1198 42.9381 62.1198 43.2543C62.1198 43.5705 62.2779 43.7813 62.5414 43.9921C62.8049 44.2029 63.3319 44.4137 64.017 44.6245C65.0183 44.9407 65.7561 45.3096 66.2831 45.7312C66.7574 46.1528 67.0209 46.7852 67.0209 47.5231C67.0209 48.3136 66.7047 48.946 66.125 49.3676C65.5453 49.7892 64.7021 50 63.7008 50C62.6995 50 61.8563 49.7365 61.1184 49.2622C60.3806 48.7879 60.0117 48.0501 60.0117 47.1014H61.8036C61.8036 47.6812 61.9617 48.0501 62.2779 48.3136C62.5941 48.5771 63.0684 48.6825 63.6481 48.6825ZM97.9564 48.6825C98.4834 48.6825 98.8523 48.5771 99.1158 48.3663C99.3793 48.1555 99.4847 47.892 99.4847 47.4704C99.4847 47.1014 99.3793 46.8379 99.1158 46.6271C98.8523 46.4163 98.4307 46.2582 97.7982 46.0474C96.7442 45.7312 95.901 45.3623 95.374 44.9407C94.847 44.5191 94.5835 43.9394 94.5835 43.2016C94.5835 42.4111 94.8997 41.8314 95.5321 41.357C96.1645 40.8827 96.955 40.6719 97.9564 40.6719C98.9577 40.6719 99.7482 40.9354 100.381 41.4624C101.013 41.9895 101.329 42.6746 101.329 43.4651H99.5374C99.5374 43.0435 99.3793 42.7273 99.1158 42.4638C98.8523 42.2003 98.4834 42.0949 97.9564 42.0949C97.4293 42.0949 97.0604 42.2003 96.7969 42.4111C96.5334 42.6219 96.428 42.9381 96.428 43.2543C96.428 43.5705 96.5861 43.7813 96.8496 43.9921C97.1131 44.2029 97.6401 44.4137 98.3253 44.6245C99.3266 44.9407 100.064 45.3096 100.591 45.7312C101.066 46.1528 101.329 46.7852 101.329 47.5231C101.329 48.3136 101.013 48.946 100.433 49.3676C99.8536 49.7892 99.0104 50 98.0091 50C97.0077 50 96.1645 49.7365 95.4267 49.2622C94.6889 48.7879 94.32 48.0501 94.32 47.1014H96.1118C96.1118 47.6812 96.2699 48.0501 96.5861 48.3136C96.9023 48.5771 97.3766 48.6825 97.9564 48.6825ZM109.709 40.8827H102.225V42.253H105.071V49.8946H106.863V42.3057H109.709V40.8827ZM110.921 40.8827H112.713V49.8946H110.921V40.8827ZM119.775 49.8946H121.988L118.773 45.0988L121.725 40.8827H119.511L117.14 44.5718H116.349V40.8827H114.557V49.8946H116.349V46.1528H117.35L119.775 49.8946ZM130.684 49.8946H128.839L128.259 47.9447H125.097L124.465 49.8946H122.62L125.73 40.8827H127.574L130.684 49.8946ZM127.785 46.5217L126.626 42.8854L125.466 46.5217H127.785ZM92.9497 40.8827H91.1579V49.8946H92.9497V40.8827ZM82.4095 40.8827H89.893V42.3057H87.0472V49.8946H85.2554V42.253H82.4095V40.8827ZM78.8785 42.8854L80.0379 46.5217H77.7191L78.8785 42.8854ZM82.9366 49.8946H81.0921L80.5124 47.9447H77.3503L76.7179 49.8946H74.8734L77.9827 40.8827H79.8273L82.9366 49.8946ZM75.4005 40.8827H67.917V42.253H70.7628V49.8946H72.5547V42.3057H75.4005V40.8827Z" fill="black"/>
<path fill-rule="evenodd" clip-rule="evenodd" d="M78.4571 36.614C78.9841 36.614 79.353 36.5086 79.6165 36.2978C79.88 36.087 79.9854 35.8234 79.9854 35.4018C79.9854 35.0329 79.88 34.7694 79.6165 34.5586C79.353 34.3478 78.9314 34.1897 78.299 33.9789C77.245 33.6627 76.4017 33.2938 75.8747 32.8722C75.3477 32.4506 75.0842 31.9236 75.0842 31.1331C75.0842 30.3426 75.4004 29.7628 76.0328 29.2885C76.6653 28.8142 77.4558 28.6034 78.4571 28.6034C79.4584 28.6034 80.2489 28.8669 80.8813 29.3939C81.5137 29.9209 81.8299 30.6061 81.8299 31.3966H80.0381C80.0381 30.975 79.88 30.6588 79.6165 30.3953C79.353 30.1318 78.9841 30.0263 78.4571 30.0263C77.9301 30.0263 77.5612 30.1318 77.2977 30.3426C77.0342 30.5534 76.9288 30.8696 76.9288 31.1858C76.9288 31.502 77.0869 31.7128 77.3504 31.9236C77.6139 32.1344 78.1409 32.3452 78.826 32.556C79.8273 32.8722 80.5651 33.2411 81.0921 33.6627C81.5664 34.0843 81.8299 34.7167 81.8299 35.4545C81.8299 36.2451 81.5137 36.8775 80.934 37.2991C80.3543 37.7207 79.5111 37.9315 78.5098 37.9315C77.5085 37.9315 76.6653 37.668 75.9274 37.1937C75.1896 36.7194 74.8207 35.9816 74.8207 35.0329H76.6126C76.6126 35.6126 76.7707 35.9816 77.0869 36.2451C77.4031 36.5086 77.8774 36.614 78.4571 36.614ZM90.1568 28.8142H82.6733V30.1845H85.5191V37.8261H87.3109V30.1845H90.1568V28.8142ZM93.2131 28.8142H91.4213V37.8261H93.2131V28.8142ZM73.2925 32.4506H69.5507V30.1845H73.9249V28.8142H67.7589V37.8261H73.9249V36.4559H69.5507V33.8735H73.2925V32.4506ZM62.1724 32.4506H65.9142V33.8735H62.1724V36.4559H66.5466V37.8261H60.3806V28.8142H66.5466V30.1845H62.1724V32.4506Z" fill="black"/>
</svg>